# xmcd
# Track frame offsets:
# 150
# 13612
# 24492
# 37947
# 50980
# 66485
# 80417
# 94935
# 117445
# 134435
# 148412
# 167285
# 183470
# 201107
# 216717
# 231107
# 248267
# 261770
#
# Disc length: 3725 seconds
# Revision: 0
# Processed by: cddbd v1.4PL0 Copyright (c) Steve Scherf et al.
# Submitted via: VisiTrax 2.9.5.180 - For more info visit www.synapsa.com
#
DISCID=090e8b12
DTITLE=Patty Loveless - That Kind Of Girl ( Live)
DYEAR=1994
DGENRE=
TTITLE0=Jealous Bone
TTITLE1=Chains
TTITLE2=The Lonely Side Of Love
TTITLE3=If My Heart Had Windows
TTITLE4=Can´tStop Myself From Loving Yoy
TTITLE5=You Will
TTITLE6=Mr. Man In The Moon
TTITLE7=How Can I Help You Say Goodbye
TTITLE8=Blue Side Of Town
TTITLE9=Hurt Me Bad ( In A Real Good Way )
TTITLE10=Don´t Toss Us Away
TTITLE11=I´m That Kind Of Girl
TTITLE12=Nothin´ But The Wheel
TTITLE13=Blame It On Your Heart
TTITLE14=Blue Memories
TTITLE15=Some Morning Soon
TTITLE16=On DowN The Line (with Vince Gill )
TTITLE17=The Night´s Too Long
EXTD=Live In Torrenc California 1993
EXTT0=
EXTT1=
EXTT2=
EXTT3=
EXTT4=
EXTT5=
EXTT6=
EXTT7=
EXTT8=
EXTT9=
EXTT10=
EXTT11=
EXTT12=
EXTT13=
EXTT14=
EXTT15=
EXTT16=
EXTT17=
PLAYORDER=
